<svg xmlns="http://www.w3.org/2000/svg" aria-hidden="true" style="width:0;height:0;position:absolute;overflow:hidden"><defs><symbol id="icon-scroll" viewBox="0 0 64 32"><path d="M.752 31.285A2.698 2.698 0 0 0 2.586 32h.012-.001c.688 0 1.349-.256 1.84-.715L32 5.776l27.557 25.509a2.698 2.698 0 0 0 1.834.715h.019a2.7 2.7 0 0 0 1.835-.716l-.002.002A2.372 2.372 0 0 0 64 29.581v-.01c0-.673-.292-1.279-.755-1.696l-.002-.002L33.92.748a2.825 2.825 0 0 0-1.918-.747h-.004c-.741 0-1.415.284-1.92.749l.002-.002L.752 27.868a2.376 2.376 0 0 0-.757 1.705v.013c0 .673.292 1.277.755 1.694l.002.002z"/></symbol></defs></svg>