<svg xmlns="http://www.w3.org/2000/svg" aria-hidden="true" style="position:absolute;width:0;height:0;overflow:hidden">
  <defs>
    <symbol id="icon-scroll" viewBox="0 0 64 32">
      <path d="M0.752 31.285c0.481 0.443 1.125 0.715 1.834 0.715 0.004 0 0.008 0 0.012-0h-0.001c0.688 0 1.349-0.256 1.84-0.715l27.563-25.509 27.557 25.509c0.481 0.443 1.125 0.715 1.834 0.715 0.002 0 0.005 0 0.007 0h-0c0.004 0 0.008 0 0.012 0 0.708 0 1.353-0.272 1.835-0.716l-0.002 0.002c0.459-0.428 0.747-1.033 0.757-1.705l0-0.002c0-0.003 0-0.005 0-0.008 0-0.673-0.292-1.279-0.755-1.696l-0.002-0.002-29.323-27.125c-0.503-0.463-1.178-0.747-1.918-0.747-0.001 0-0.001 0-0.002 0h0c-0.001 0-0.001 0-0.002 0-0.741 0-1.415 0.284-1.92 0.749l0.002-0.002-29.328 27.12c-0.458 0.428-0.747 1.033-0.757 1.705l-0 0.002c-0 0.003-0 0.007-0 0.011 0 0.673 0.292 1.277 0.755 1.694l0.002 0.002z"></path>
    </symbol>
  </defs>
</svg>
